<svg width="133" height="36" viewBox="0 0 133 36" fill="none" xmlns="http://www.w3.org/2000/svg">
<path d="M0.000887752 35.3862V0.477139H7.38157V29.301H22.3475V35.3862H0.000887752ZM57.9554 17.9317C57.9554 21.7385 57.2338 24.9771 55.7907 27.6476C54.3588 30.318 52.4043 32.3578 49.927 33.7669C47.4611 35.1646 44.6884 35.8635 41.6088 35.8635C38.5066 35.8635 35.7225 35.159 33.2566 33.7499C30.7907 32.3408 28.8418 30.301 27.41 27.6305C25.9782 24.9601 25.2623 21.7271 25.2623 17.9317C25.2623 14.1249 25.9782 10.8862 27.41 8.21578C28.8418 5.54532 30.7907 3.51123 33.2566 2.1135C35.7225 0.704412 38.5066 -0.000134468 41.6088 -0.000134468C44.6884 -0.000134468 47.4611 0.704412 49.927 2.1135C52.4043 3.51123 54.3588 5.54532 55.7907 8.21578C57.2338 10.8862 57.9554 14.1249 57.9554 17.9317ZM50.4725 17.9317C50.4725 15.4658 50.1032 13.3862 49.3645 11.693C48.6373 9.99987 47.6088 8.71578 46.2793 7.84078C44.9498 6.96578 43.3929 6.52828 41.6088 6.52828C39.8248 6.52828 38.2679 6.96578 36.9384 7.84078C35.6088 8.71578 34.5748 9.99987 33.8361 11.693C33.1088 13.3862 32.7452 15.4658 32.7452 17.9317C32.7452 20.3976 33.1088 22.4771 33.8361 24.1703C34.5748 25.8635 35.6088 27.1476 36.9384 28.0226C38.2679 28.8976 39.8248 29.3351 41.6088 29.3351C43.3929 29.3351 44.9498 28.8976 46.2793 28.0226C47.6088 27.1476 48.6373 25.8635 49.3645 24.1703C50.1032 22.4771 50.4725 20.3976 50.4725 17.9317ZM86.5705 11.7612C86.3319 10.9317 85.9966 10.1987 85.5648 9.56237C85.133 8.91464 84.6046 8.36919 83.9796 7.926C83.3659 7.47146 82.6614 7.12487 81.8659 6.88623C81.0819 6.64759 80.2125 6.52828 79.258 6.52828C77.4739 6.52828 75.9057 6.97146 74.5534 7.85782C73.2125 8.74418 72.1671 10.034 71.4171 11.7271C70.6671 13.409 70.2921 15.4658 70.2921 17.8976C70.2921 20.3294 70.6614 22.3976 71.4 24.1021C72.1387 25.8067 73.1841 27.1078 74.5364 28.0055C75.8887 28.8919 77.4853 29.3351 79.3262 29.3351C80.9966 29.3351 82.4228 29.0396 83.6046 28.4487C84.7978 27.8465 85.7069 26.9999 86.3319 25.909C86.9682 24.818 87.2864 23.5283 87.2864 22.0396L88.7864 22.2612H79.7864V16.7044H94.3944V21.1021C94.3944 24.1703 93.7466 26.8067 92.4512 29.0112C91.1557 31.2044 89.3716 32.8976 87.0989 34.0908C84.8262 35.2726 82.2239 35.8635 79.2921 35.8635C76.0194 35.8635 73.1444 35.1419 70.6671 33.6987C68.1898 32.2442 66.258 30.1817 64.8716 27.5112C63.4966 24.8294 62.8091 21.6476 62.8091 17.9658C62.8091 15.1362 63.2182 12.6135 64.0364 10.3976C64.8659 8.17032 66.025 6.28396 67.5137 4.7385C69.0023 3.19305 70.7353 2.01691 72.7125 1.21009C74.6898 0.403275 76.8319 -0.000134468 79.1387 -0.000134468C81.1159 -0.000134468 82.9569 0.289639 84.6614 0.869184C86.3659 1.43737 87.8773 2.24418 89.1955 3.28964C90.525 4.33509 91.6103 5.57941 92.4512 7.02259C93.2921 8.45441 93.8319 10.034 94.0705 11.7612H86.5705ZM132.018 17.9317C132.018 21.7385 131.296 24.9771 129.853 27.6476C128.421 30.318 126.467 32.3578 123.99 33.7669C121.524 35.1646 118.751 35.8635 115.671 35.8635C112.569 35.8635 109.785 35.159 107.319 33.7499C104.853 32.3408 102.904 30.301 101.472 27.6305C100.041 24.9601 99.3248 21.7271 99.3248 17.9317C99.3248 14.1249 100.041 10.8862 101.472 8.21578C102.904 5.54532 104.853 3.51123 107.319 2.1135C109.785 0.704412 112.569 -0.000134468 115.671 -0.000134468C118.751 -0.000134468 121.524 0.704412 123.99 2.1135C126.467 3.51123 128.421 5.54532 129.853 8.21578C131.296 10.8862 132.018 14.1249 132.018 17.9317ZM124.535 17.9317C124.535 15.4658 124.166 13.3862 123.427 11.693C122.7 9.99987 121.671 8.71578 120.342 7.84078C119.012 6.96578 117.455 6.52828 115.671 6.52828C113.887 6.52828 112.33 6.96578 111.001 7.84078C109.671 8.71578 108.637 9.99987 107.899 11.693C107.171 13.3862 106.808 15.4658 106.808 17.9317C106.808 20.3976 107.171 22.4771 107.899 24.1703C108.637 25.8635 109.671 27.1476 111.001 28.0226C112.33 28.8976 113.887 29.3351 115.671 29.3351C117.455 29.3351 119.012 28.8976 120.342 28.0226C121.671 27.1476 122.7 25.8635 123.427 24.1703C124.166 22.4771 124.535 20.3976 124.535 17.9317Z" fill="#1A1A1A"/>
</svg>
