<svg width="21" height="21" viewBox="0 0 21 21" fill="none" xmlns="http://www.w3.org/2000/svg">
<path fill-rule="evenodd" clip-rule="evenodd" d="M4.464 0C3.28037 -8.72778e-08 2.14519 0.470078 1.30808 1.30687C0.470968 2.14366 0.000454543 3.27866 0 4.46229V16.3663C0 17.5502 0.470313 18.6856 1.30748 19.5228C2.14464 20.36 3.28007 20.8303 4.464 20.8303H16.368C17.5516 20.8298 18.6866 20.3593 19.5234 19.5222C20.3602 18.6851 20.8303 17.5499 20.8303 16.3663V4.46229C20.8298 3.27895 20.3596 2.14422 19.5228 1.30747C18.6861 0.470732 17.5513 0.000454342 16.368 0H4.464ZM17.652 4.46914C17.652 4.81014 17.5165 5.13716 17.2754 5.37828C17.0343 5.6194 16.7073 5.75486 16.3663 5.75486C16.0253 5.75486 15.6983 5.6194 15.4571 5.37828C15.216 5.13716 15.0806 4.81014 15.0806 4.46914C15.0806 4.12815 15.216 3.80112 15.4571 3.56001C15.6983 3.31889 16.0253 3.18343 16.3663 3.18343C16.7073 3.18343 17.0343 3.31889 17.2754 3.56001C17.5165 3.80112 17.652 4.12815 17.652 4.46914ZM10.4177 6.84857C9.47203 6.84857 8.56508 7.22424 7.89637 7.89294C7.22767 8.56165 6.852 9.4686 6.852 10.4143C6.852 11.36 7.22767 12.2669 7.89637 12.9356C8.56508 13.6043 9.47203 13.98 10.4177 13.98C11.3634 13.98 12.2704 13.6043 12.9391 12.9356C13.6078 12.2669 13.9834 11.36 13.9834 10.4143C13.9834 9.4686 13.6078 8.56165 12.9391 7.89294C12.2704 7.22424 11.3634 6.84857 10.4177 6.84857ZM5.136 10.4143C5.136 9.01394 5.69228 7.67095 6.68248 6.68076C7.67267 5.69057 9.01566 5.13429 10.416 5.13429C11.8163 5.13429 13.1593 5.69057 14.1495 6.68076C15.1397 7.67095 15.696 9.01394 15.696 10.4143C15.696 11.8146 15.1397 13.1576 14.1495 14.1478C13.1593 15.138 11.8163 15.6943 10.416 15.6943C9.01566 15.6943 7.67267 15.138 6.68248 14.1478C5.69228 13.1576 5.136 11.8146 5.136 10.4143Z" fill="#1A1A1A"/>
</svg>
