<svg width="20" height="21" viewBox="0 0 20 21" fill="none" xmlns="http://www.w3.org/2000/svg">
<path d="M2.85714 0C1.28125 0 0 1.28926 0 2.875V17.25C0 18.8357 1.28125 20.125 2.85714 20.125H7.24107V13.5754H4.88393V10.0625H7.24107V8.54863C7.24107 4.63594 9 2.82109 12.8214 2.82109C13.5446 2.82109 14.7946 2.96484 15.308 3.10859V6.28906C15.0402 6.26211 14.5714 6.24414 13.9866 6.24414C12.1116 6.24414 11.3884 6.9584 11.3884 8.81367V10.0625H15.1205L14.4777 13.5754H11.3839V20.125H17.1429C18.7188 20.125 20 18.8357 20 17.25V2.875C20 1.28926 18.7188 0 17.1429 0H2.85714Z" fill="#1A1A1A"/>
</svg>
