<svg width="22" height="22" viewBox="0 0 22 22" fill="none" xmlns="http://www.w3.org/2000/svg">
<path d="M3.39453 18.4193H6.70312V8.47917H3.39453V18.4193ZM6.91797 5.41406C6.90842 4.91753 6.73655 4.50694 6.40234 4.18229C6.06814 3.85764 5.62413 3.69531 5.07031 3.69531C4.51649 3.69531 4.06532 3.85764 3.7168 4.18229C3.36827 4.50694 3.19401 4.91753 3.19401 5.41406C3.19401 5.90104 3.3635 6.30925 3.70247 6.63867C4.04145 6.9681 4.48307 7.13281 5.02734 7.13281H5.04167C5.60503 7.13281 6.05859 6.9681 6.40234 6.63867C6.74609 6.30925 6.91797 5.90104 6.91797 5.41406ZM15.2969 18.4193H18.6055V12.7188C18.6055 11.2483 18.2569 10.1359 17.5599 9.38151C16.8628 8.62717 15.9414 8.25 14.7956 8.25C13.497 8.25 12.4991 8.80859 11.8021 9.92578H11.8307V8.47917H8.52214C8.55078 9.10938 8.55078 12.4227 8.52214 18.4193H11.8307V12.862C11.8307 12.4991 11.8641 12.2318 11.931 12.0599C12.0742 11.7257 12.2891 11.4416 12.5755 11.2077C12.862 10.9737 13.2153 10.8568 13.6354 10.8568C14.7431 10.8568 15.2969 11.6063 15.2969 13.1055V18.4193ZM22 4.125V17.875C22 19.0113 21.5966 19.9829 20.7897 20.7897C19.9829 21.5966 19.0113 22 17.875 22H4.125C2.98872 22 2.01714 21.5966 1.21029 20.7897C0.403429 19.9829 0 19.0113 0 17.875V4.125C0 2.98872 0.403429 2.01714 1.21029 1.21029C2.01714 0.403429 2.98872 0 4.125 0H17.875C19.0113 0 19.9829 0.403429 20.7897 1.21029C21.5966 2.01714 22 2.98872 22 4.125Z" fill="#1A1A1A"/>
</svg>
